<svg xmlns="http://www.w3.org/2000/svg" version="1.1" xmlnsXlink="http://www.w3.org/1999/xlink" xmlnsSvgjs="http://svgjs.dev/svgjs" width="1000" height="623" viewBox="0 0 1000 623"><g transform="matrix(1,0,0,1,-0.6060602703586824,0.2522267206477409)"><svg viewBox="0 0 396 247" data-background-color="#ffffff" preserveAspectRatio="xMidYMid meet" height="623" width="1000" xmlns="http://www.w3.org/2000/svg" xmlnsXlink="http://www.w3.org/1999/xlink"><g id="tight-bounds" transform="matrix(1,0,0,1,0.24000013293800748,-0.09999999999999432)"><svg viewBox="0 0 395.52 247.2" height="247.2" width="395.52"><g><svg></svg></g><g><svg viewBox="0 0 395.52 247.2" height="247.2" width="395.52"><mask id="e9f812a6-49a7-45b6-8605-a06e675b2a37"><rect width="395.52" height="247.2" fill="white"></rect><g transform="matrix(1,0,0,1,0,87.3522464071687)" id="clone"><svg viewBox="0 0 395.52 72.49550718566258" height="72.49550718566258" width="395.52"><g><svg viewBox="0 0 395.52 72.49550718566258" height="72.49550718566258" width="395.52"><g><svg viewBox="0 0 518.2757078492767 94.99560149307645" height="72.49550718566258" width="395.52"><g transform="matrix(1,0,0,1,122.7557078492767,13.128914533413607)"><svg viewBox="0 0 395.52 68.73777242624924" height="68.73777242624924" width="395.52"><g id="SvgjsG1187"><svg viewBox="0 0 395.52 68.73777242624924" height="68.73777242624924" width="395.52" id="SvgjsSvg1186"><g><svg viewBox="0 0 395.52 68.73777242624924" height="68.73777242624924" width="395.52"><g transform="matrix(1,0,0,1,0,0)"><svg width="395.52" viewBox="-0.6500000953674316 -40.5 250.1199951171875 44.29999923706055" height="68.73777242624924" data-palette-color="#332885"><path d="M27.75-9L29-8.5Q28.45-6.25 27.23-4.53 26-2.8 24.28-1.6 22.55-0.4 20.43 0.2 18.3 0.8 15.95 0.8L15.95 0.8Q9.5 0.8 5.93-3.75 2.35-8.3 2.35-17.5L2.35-17.5Q2.35-20.9 2.95-24.45 3.55-28 5.05-30.9 6.55-33.8 9.08-35.65 11.6-37.5 15.45-37.5L15.45-37.5Q17.3-37.5 19.05-37.02 20.8-36.55 22.13-35.58 23.45-34.6 24.25-33.1 25.05-31.6 25.05-29.6L25.05-29.6Q25.05-28.1 24.48-27.15 23.9-26.2 22.35-26.2L22.35-26.2Q21.75-26.2 20.93-26.43 20.1-26.65 19.2-27.5L19.2-27.5Q19.85-27.9 20.25-28.98 20.65-30.05 20.65-31.1L20.65-31.1Q20.65-32.7 19.7-33.93 18.75-35.15 17.15-35.15L17.15-35.15Q15.45-35.15 14.2-33.7 12.95-32.25 12.13-29.88 11.3-27.5 10.9-24.48 10.5-21.45 10.5-18.3L10.5-18.3Q10.5-14.15 11.18-11.35 11.85-8.55 13-6.85 14.15-5.15 15.73-4.45 17.3-3.75 19.1-3.75L19.1-3.75Q21.95-3.75 24.23-5.18 26.5-6.6 27.75-9L27.75-9ZM37.45-25.25L37.45-25.25Q40.9-25.25 42.95-23.38 45-21.5 45.6-17.35L45.6-17.35 45.95-17.35Q46.65-17.35 47.52-17.6 48.4-17.85 49.35-18.25 50.3-18.65 51.2-19.2 52.1-19.75 52.8-20.35L52.8-20.35 53.55-19Q53-18.2 52.17-17.55 51.35-16.9 50.3-16.38 49.25-15.85 48.1-15.48 46.95-15.1 45.8-14.9L45.8-14.9Q45.85-14.55 45.85-14.23 45.85-13.9 45.85-13.55L45.85-13.55Q45.85-10.65 45.35-8.13 44.85-5.6 43.67-3.73 42.5-1.85 40.65-0.78 38.8 0.3 36.1 0.3L36.1 0.3Q34.25 0.3 32.57-0.28 30.9-0.85 29.6-2.18 28.3-3.5 27.52-5.68 26.75-7.85 26.75-11L26.75-11Q26.75-13.15 27.2-15.63 27.65-18.1 28.85-20.25 30.05-22.4 32.12-23.83 34.2-25.25 37.45-25.25ZM37.5-4.4L37.5-4.4Q38.55-4.4 39.32-5.13 40.1-5.85 40.6-7.13 41.1-8.4 41.32-10.15 41.55-11.9 41.55-13.95L41.55-13.95 41.55-14.7Q40.3-14.95 39.95-15.65 39.6-16.35 39.6-17.2L39.6-17.2Q39.6-18.25 39.95-18.8 40.3-19.35 40.85-19.55L40.85-19.55Q40.3-21.25 39.52-21.75 38.75-22.25 38.2-22.25L38.2-22.25Q37.1-22.25 36.32-21.23 35.55-20.2 35.05-18.63 34.55-17.05 34.32-15.15 34.1-13.25 34.1-11.5L34.1-11.5Q34.1-9.25 34.42-7.85 34.75-6.45 35.25-5.7 35.75-4.95 36.35-4.67 36.95-4.4 37.5-4.4ZM62.3-15.1L62.3-15.1Q62.3-18.1 61.62-19.38 60.95-20.65 59.7-20.65L59.7-20.65Q58.95-20.65 58.42-20.25 57.9-19.85 57.55-19.2 57.2-18.55 57-17.73 56.8-16.9 56.75-16.05L56.75-16.05 56.75 0 49.55 0 49.55-25 56.75-25 56.75-22.4Q57.9-24.15 59.35-24.68 60.8-25.2 62.1-25.2L62.1-25.2Q63.5-25.2 64.77-24.75 66.05-24.3 67.02-23.23 68-22.15 68.55-20.38 69.1-18.6 69.1-16L69.1-16Q69.1-15.35 69.07-14.38 69.05-13.4 69-12.4 68.95-11.4 68.92-10.45 68.9-9.5 68.9-8.85L68.9-8.85Q68.9-6.7 69.35-5.63 69.8-4.55 71.35-4.55L71.35-4.55Q73.05-4.55 73.72-5.8 74.4-7.05 74.8-8.95L74.8-8.95 76.9-8.95Q76.5-5.95 75.7-4.13 74.9-2.3 73.9-1.33 72.9-0.35 71.75-0.03 70.6 0.3 69.5 0.3L69.5 0.3Q65.65 0.3 63.92-2.25 62.2-4.8 62.2-9.05L62.2-9.05Q62.2-9.5 62.22-10.33 62.25-11.15 62.25-12.05 62.25-12.95 62.27-13.78 62.3-14.6 62.3-15.1ZM93.89-8.95L95.99-8.95Q94.44-6.6 92.69-5.1 90.94-3.6 89.44-2.55L89.44-2.55Q88.14-1 86.19-0.35 84.24 0.3 82.44 0.3L82.44 0.3Q80.24 0.3 78.59-0.4 76.94-1.1 75.84-2.18 74.74-3.25 74.19-4.58 73.64-5.9 73.64-7.1L73.64-7.1Q73.64-8.45 74.17-9.4 74.69-10.35 75.49-10.75L75.49-10.75Q76.94-14.5 77.92-18.18 78.89-21.85 79.29-25.55L79.29-25.55 86.49-26.55Q87.74-21.7 88.59-18.68 89.44-15.65 89.94-13.63 90.44-11.6 90.64-10.1 90.84-8.6 90.84-6.75L90.84-6.75 90.84-6.45Q92.64-7.7 93.89-8.95L93.89-8.95ZM79.44-8.5L79.44-8.5Q79.44-7.75 78.99-7.13 78.54-6.5 77.69-6.5L77.69-6.5Q77.29-6.5 76.87-6.63 76.44-6.75 76.19-7.15L76.19-7.15Q76.59-5.4 77.47-4.53 78.34-3.65 79.99-3.65L79.99-3.65Q81.44-3.65 82.49-4.42 83.54-5.2 83.54-7.15L83.54-7.15Q83.54-8.5 83.39-9.58 83.24-10.65 82.92-12 82.59-13.35 82.07-15.2 81.54-17.05 80.79-19.85L80.79-19.85Q80.29-17.45 79.57-15.23 78.84-13 78.04-10.6L78.04-10.6Q78.59-10.35 79.02-9.83 79.44-9.3 79.44-8.5ZM93.89-31.9L101.09-32.9 101.09-25 104.14-25 104.14-23 101.09-23 101.09-8Q101.09-5.9 101.67-5.23 102.24-4.55 103.69-4.55L103.69-4.55Q105.14-4.55 106.12-5.8 107.09-7.05 107.24-8.95L107.24-8.95 109.34-8.95Q108.94-5.9 107.94-4.08 106.94-2.25 105.69-1.28 104.44-0.3 103.14 0 101.84 0.3 100.84 0.3L100.84 0.3Q96.99 0.3 95.44-1.83 93.89-3.95 93.89-7.45L93.89-7.45 93.89-23 92.29-23 92.29-25 93.89-25 93.89-31.9ZM107.24-25L114.44-25 114.44-21.9Q115.54-23.2 116.89-24.23 118.24-25.25 119.84-25.25L119.84-25.25Q120.79-25.25 121.56-24.85 122.34-24.45 122.91-23.8 123.49-23.15 123.81-22.38 124.14-21.6 124.14-20.8L124.14-20.8Q124.14-19.7 123.46-18.78 122.79-17.85 121.24-17.85L121.24-17.85Q120.09-17.85 119.64-18.35 119.19-18.85 118.94-19.43 118.69-20 118.41-20.5 118.14-21 117.44-21L117.44-21Q116.69-21 115.96-20.43 115.24-19.85 114.44-19L114.44-19 114.44 0 107.24 0 107.24-25ZM138.44-25L145.64-25 145.64-8Q145.64-6.1 146.14-5.33 146.64-4.55 147.94-4.55L147.94-4.55Q149.84-4.55 150.71-5.85 151.59-7.15 151.79-8.95L151.79-8.95 153.89-8.95Q153.49-5.9 152.49-4.08 151.49-2.25 150.24-1.28 148.99-0.3 147.69 0 146.39 0.3 145.34 0.3L145.34 0.3Q142.64 0.3 141.26-0.95 139.89-2.2 139.39-4.45L139.39-4.45Q138.79-2.85 137.94-1.93 137.09-1 136.19-0.5 135.29 0 134.39 0.15 133.49 0.3 132.74 0.3L132.74 0.3Q129.19 0.3 127.61-1.8 126.04-3.9 126.04-7.45L126.04-7.45 126.04-25 133.24-25 133.24-8Q133.24-6.1 133.76-5.33 134.29-4.55 135.29-4.55L135.29-4.55Q136.64-4.55 137.54-5.8 138.44-7.05 138.44-8.95L138.44-8.95 138.44-25ZM163.33-17.25L163.33-17.25Q163.43-17.65 163.46-17.95 163.48-18.25 163.48-18.75L163.48-18.75Q163.48-20.8 162.91-21.7 162.33-22.6 161.43-22.6L161.43-22.6Q160.43-22.6 159.71-21.58 158.98-20.55 158.51-18.98 158.03-17.4 157.81-15.45 157.58-13.5 157.58-11.65L157.58-11.65Q157.58-9.3 157.91-7.8 158.23-6.3 158.88-5.45 159.53-4.6 160.51-4.25 161.48-3.9 162.73-3.9L162.73-3.9Q164.23-3.9 165.36-4.3 166.48-4.7 167.38-5.38 168.28-6.05 169.03-6.98 169.78-7.9 170.48-8.95L170.48-8.95 172.18-8.95Q171.48-7.2 170.51-5.55 169.53-3.9 168.11-2.6 166.68-1.3 164.76-0.5 162.83 0.3 160.28 0.3L160.28 0.3Q158.18 0.3 156.38-0.33 154.58-0.95 153.26-2.33 151.93-3.7 151.21-5.9 150.48-8.1 150.48-11.2L150.48-11.2Q150.48-13.3 150.91-15.78 151.33-18.25 152.48-20.35 153.63-22.45 155.61-23.85 157.58-25.25 160.73-25.25L160.73-25.25Q162.68-25.25 163.96-24.7 165.23-24.15 165.98-23.33 166.73-22.5 167.03-21.53 167.33-20.55 167.33-19.65L167.33-19.65Q167.33-18.35 166.81-17.5 166.28-16.65 165.38-16.65L165.38-16.65Q164.98-16.65 164.43-16.8 163.88-16.95 163.33-17.25ZM170.48-31.9L177.68-32.9 177.68-25 180.73-25 180.73-23 177.68-23 177.68-8Q177.68-5.9 178.25-5.23 178.83-4.55 180.28-4.55L180.28-4.55Q181.73-4.55 182.7-5.8 183.68-7.05 183.83-8.95L183.83-8.95 185.93-8.95Q185.53-5.9 184.53-4.08 183.53-2.25 182.28-1.28 181.03-0.3 179.73 0 178.43 0.3 177.43 0.3L177.43 0.3Q173.58 0.3 172.03-1.83 170.48-3.95 170.48-7.45L170.48-7.45 170.48-23 168.88-23 168.88-25 170.48-25 170.48-31.9ZM183.83-25L191.03-25 191.03-8Q191.03-5.9 191.6-5.23 192.18-4.55 193.63-4.55L193.63-4.55Q195.08-4.55 196.05-5.8 197.03-7.05 197.18-8.95L197.18-8.95 199.28-8.95Q198.88-5.9 197.88-4.08 196.88-2.25 195.63-1.28 194.38-0.3 193.08 0 191.78 0.3 190.78 0.3L190.78 0.3Q186.93 0.3 185.38-1.83 183.83-3.95 183.83-7.45L183.83-7.45 183.83-25ZM183.28-31.65L183.28-31.65Q183.28-33.3 184.43-34.48 185.58-35.65 187.23-35.65L187.23-35.65Q188.88-35.65 190.05-34.48 191.23-33.3 191.23-31.65L191.23-31.65Q191.23-30 190.05-28.85 188.88-27.7 187.23-27.7L187.23-27.7Q185.58-27.7 184.43-28.85 183.28-30 183.28-31.65ZM207.02-25.25L207.02-25.25Q210.47-25.25 212.52-23.38 214.57-21.5 215.17-17.35L215.17-17.35 215.52-17.35Q216.22-17.35 217.1-17.6 217.97-17.85 218.92-18.25 219.88-18.65 220.77-19.2 221.67-19.75 222.38-20.35L222.38-20.35 223.13-19Q222.57-18.2 221.75-17.55 220.92-16.9 219.88-16.38 218.82-15.85 217.67-15.48 216.52-15.1 215.38-14.9L215.38-14.9Q215.42-14.55 215.42-14.23 215.42-13.9 215.42-13.55L215.42-13.55Q215.42-10.65 214.92-8.13 214.42-5.6 213.25-3.73 212.07-1.85 210.22-0.78 208.38 0.3 205.67 0.3L205.67 0.3Q203.82 0.3 202.15-0.28 200.47-0.85 199.17-2.18 197.88-3.5 197.1-5.68 196.32-7.85 196.32-11L196.32-11Q196.32-13.15 196.77-15.63 197.22-18.1 198.42-20.25 199.63-22.4 201.7-23.83 203.77-25.25 207.02-25.25ZM207.07-4.4L207.07-4.4Q208.13-4.4 208.9-5.13 209.67-5.85 210.17-7.13 210.67-8.4 210.9-10.15 211.13-11.9 211.13-13.95L211.13-13.95 211.13-14.7Q209.88-14.95 209.52-15.65 209.17-16.35 209.17-17.2L209.17-17.2Q209.17-18.25 209.52-18.8 209.88-19.35 210.42-19.55L210.42-19.55Q209.88-21.25 209.1-21.75 208.32-22.25 207.77-22.25L207.77-22.25Q206.67-22.25 205.9-21.23 205.13-20.2 204.63-18.63 204.13-17.05 203.9-15.15 203.67-13.25 203.67-11.5L203.67-11.5Q203.67-9.25 204-7.85 204.32-6.45 204.82-5.7 205.32-4.95 205.92-4.67 206.52-4.4 207.07-4.4ZM231.87-15.1L231.87-15.1Q231.87-18.1 231.2-19.38 230.52-20.65 229.27-20.65L229.27-20.65Q228.52-20.65 228-20.25 227.47-19.85 227.12-19.2 226.77-18.55 226.57-17.73 226.37-16.9 226.32-16.05L226.32-16.05 226.32 0 219.12 0 219.12-25 226.32-25 226.32-22.4Q227.47-24.15 228.92-24.68 230.37-25.2 231.67-25.2L231.67-25.2Q233.07-25.2 234.35-24.75 235.62-24.3 236.6-23.23 237.57-22.15 238.12-20.38 238.67-18.6 238.67-16L238.67-16Q238.67-15.35 238.65-14.38 238.62-13.4 238.57-12.4 238.52-11.4 238.5-10.45 238.47-9.5 238.47-8.85L238.47-8.85Q238.47-6.7 238.92-5.63 239.37-4.55 240.92-4.55L240.92-4.55Q242.62-4.55 243.3-5.8 243.97-7.05 244.37-8.95L244.37-8.95 246.47-8.95Q246.07-5.95 245.27-4.13 244.47-2.3 243.47-1.33 242.47-0.35 241.32-0.03 240.17 0.3 239.07 0.3L239.07 0.3Q235.22 0.3 233.5-2.25 231.77-4.8 231.77-9.05L231.77-9.05Q231.77-9.5 231.8-10.33 231.82-11.15 231.82-12.05 231.82-12.95 231.85-13.78 231.87-14.6 231.87-15.1Z" opacity="1" transform="matrix(1,0,0,1,0,0)" fill="black" class="wordmark-text-0" id="SvgjsPath1185" stroke-width="5" stroke="black" stroke-linejoin="round"></path></svg></g></svg></g></svg></g></svg></g><g><svg viewBox="0 0 113.88347242329236 94.99560149307645" height="94.99560149307645" width="113.88347242329236"><g><svg xmlns="http://www.w3.org/2000/svg" data-name="Calque 1" viewBox="4.326817989349365 4.885083198547363 91.34465789794922 76.19490814208984" x="0" y="0" height="94.99560149307645" width="113.88347242329236" class="icon-icon-0" data-fill-palette-color="accent" id="SvgjsSvg1184"><path d="M95.41 25.94L54.59 6.16a8.9 8.9 0 0 0-9.18 0L4.59 25.94c-0.47 0.28-0.27 4.08 0.28 4.08H8.76v2.24A4.21 4.21 0 0 0 13 36.47H13V65.54H7.67A1.27 1.27 0 0 0 6.4 66.81v13a1.27 1.27 0 0 0 1.27 1.27H92.33a1.27 1.27 0 0 0 1.27-1.27v-13a1.27 1.27 0 0 0-1.27-1.27H87V36.47H87a4.21 4.21 0 0 0 4.21-4.21V30h3.89C95.68 30 95.88 26.22 95.41 25.94ZM45.29 65.54H22.45V36.47h0.06a4.2 4.2 0 0 0 4.2-4.21V30H41v2.24a4.21 4.21 0 0 0 4.21 4.21h0.06ZM50 21.7A5.7 5.7 0 1 1 55.7 16 5.7 5.7 0 0 1 50 21.7ZM77.55 65.54H54.71V36.47h0.06A4.21 4.21 0 0 0 59 32.26V30H73.29v2.24a4.2 4.2 0 0 0 4.2 4.21h0.06Z" fill="black" stroke-width="5" stroke="black" stroke-linejoin="round"></path></svg></g></svg></g></svg></g></svg></g></svg></g></mask><g mask="url(#e9f812a6-49a7-45b6-8605-a06e675b2a37)"><g><path xmlns="http://www.w3.org/2000/svg" d="M275.696 183.948l8.068 3.227c-2.367 9.681-6.175 18.223-11.424 25.624-5.293 7.444-11.639 13.748-19.041 18.911-7.444 5.163-15.727 9.036-24.849 11.617-9.165 2.582-18.804 3.873-28.915 3.873v0c-27.754 0-49.311-9.789-64.672-29.367-15.404-19.578-23.106-49.16-23.107-88.747v0c0-14.63 1.291-29.582 3.873-44.857 2.582-15.275 7.1-29.152 13.554-41.631 6.454-12.478 15.125-22.698 26.011-30.658 10.843-7.96 24.548-11.94 41.114-11.94v0c7.96 0 15.705 1.033 23.235 3.098 7.53 2.022 14.156 5.12 19.88 9.294 5.68 4.217 10.241 9.552 13.683 16.007 3.442 6.454 5.163 13.984 5.163 22.59v0c0 6.454-1.226 11.725-3.679 15.813-2.496 4.088-7.078 6.132-13.748 6.132v0c-2.582 0-5.637-0.495-9.165-1.485-3.571-0.947-7.293-3.249-11.166-6.906v0c2.797-1.721 5.056-4.905 6.777-9.552 1.721-4.604 2.582-9.165 2.582-13.683v0c0-6.885-2.044-12.973-6.131-18.266-4.088-5.25-9.574-7.874-16.459-7.874v0c-7.315 0-13.662 3.12-19.04 9.358-5.379 6.239-9.832 14.458-13.361 24.656-3.571 10.241-6.218 21.859-7.938 34.853-1.721 13.038-2.582 26.334-2.582 39.888v0c0 17.857 1.463 32.809 4.389 44.857 2.883 12.048 6.799 21.73 11.747 29.045 4.948 7.315 10.822 12.478 17.62 15.49 6.756 3.012 14.006 4.518 21.751 4.518v0c12.263 0 23.3-3.077 33.111-9.23 9.768-6.11 17.341-14.329 22.719-24.655z" fill="#332885" fill-rule="nonzero" stroke="none" stroke-width="1" stroke-linecap="butt" stroke-linejoin="miter" stroke-miterlimit="10" stroke-dasharray="" stroke-dashoffset="0" font-family="none" font-weight="none" font-size="none" text-anchor="none" style="mix-blend-mode: normal" data-fill-palette-color="tertiary"></path></g></g><g transform="matrix(1,0,0,1,0,87.3522464071687)"><svg viewBox="0 0 395.52 72.49550718566258" height="72.49550718566258" width="395.52"><g><svg viewBox="0 0 395.52 72.49550718566258" height="72.49550718566258" width="395.52"><g><svg viewBox="0 0 518.2757078492767 94.99560149307645" height="72.49550718566258" width="395.52"><g transform="matrix(1,0,0,1,122.7557078492767,13.128914533413607)"><svg viewBox="0 0 395.52 68.73777242624924" height="68.73777242624924" width="395.52"><g id="textblocktransform"><svg viewBox="0 0 395.52 68.73777242624924" height="68.73777242624924" width="395.52" id="textblock"><g><svg viewBox="0 0 395.52 68.73777242624924" height="68.73777242624924" width="395.52"><g transform="matrix(1,0,0,1,0,0)"><svg width="395.52" viewBox="-0.6500000953674316 -40.5 250.1199951171875 44.29999923706055" height="68.73777242624924" data-palette-color="#332885"><path d="M27.75-9L29-8.5Q28.45-6.25 27.23-4.53 26-2.8 24.28-1.6 22.55-0.4 20.43 0.2 18.3 0.8 15.95 0.8L15.95 0.8Q9.5 0.8 5.93-3.75 2.35-8.3 2.35-17.5L2.35-17.5Q2.35-20.9 2.95-24.45 3.55-28 5.05-30.9 6.55-33.8 9.08-35.65 11.6-37.5 15.45-37.5L15.45-37.5Q17.3-37.5 19.05-37.02 20.8-36.55 22.13-35.58 23.45-34.6 24.25-33.1 25.05-31.6 25.05-29.6L25.05-29.6Q25.05-28.1 24.48-27.15 23.9-26.2 22.35-26.2L22.35-26.2Q21.75-26.2 20.93-26.43 20.1-26.65 19.2-27.5L19.2-27.5Q19.85-27.9 20.25-28.98 20.65-30.05 20.65-31.1L20.65-31.1Q20.65-32.7 19.7-33.93 18.75-35.15 17.15-35.15L17.15-35.15Q15.45-35.15 14.2-33.7 12.95-32.25 12.13-29.88 11.3-27.5 10.9-24.48 10.5-21.45 10.5-18.3L10.5-18.3Q10.5-14.15 11.18-11.35 11.85-8.55 13-6.85 14.15-5.15 15.73-4.45 17.3-3.75 19.1-3.75L19.1-3.75Q21.95-3.75 24.23-5.18 26.5-6.6 27.75-9L27.75-9ZM37.45-25.25L37.45-25.25Q40.9-25.25 42.95-23.38 45-21.5 45.6-17.35L45.6-17.35 45.95-17.35Q46.65-17.35 47.52-17.6 48.4-17.85 49.35-18.25 50.3-18.65 51.2-19.2 52.1-19.75 52.8-20.35L52.8-20.35 53.55-19Q53-18.2 52.17-17.55 51.35-16.9 50.3-16.38 49.25-15.85 48.1-15.48 46.95-15.1 45.8-14.9L45.8-14.9Q45.85-14.55 45.85-14.23 45.85-13.9 45.85-13.55L45.85-13.55Q45.85-10.65 45.35-8.13 44.85-5.6 43.67-3.73 42.5-1.85 40.65-0.78 38.8 0.3 36.1 0.3L36.1 0.3Q34.25 0.3 32.57-0.28 30.9-0.85 29.6-2.18 28.3-3.5 27.52-5.68 26.75-7.85 26.75-11L26.75-11Q26.75-13.15 27.2-15.63 27.65-18.1 28.85-20.25 30.05-22.4 32.12-23.83 34.2-25.25 37.45-25.25ZM37.5-4.4L37.5-4.4Q38.55-4.4 39.32-5.13 40.1-5.85 40.6-7.13 41.1-8.4 41.32-10.15 41.55-11.9 41.55-13.95L41.55-13.95 41.55-14.7Q40.3-14.95 39.95-15.65 39.6-16.35 39.6-17.2L39.6-17.2Q39.6-18.25 39.95-18.8 40.3-19.35 40.85-19.55L40.85-19.55Q40.3-21.25 39.52-21.75 38.75-22.25 38.2-22.25L38.2-22.25Q37.1-22.25 36.32-21.23 35.55-20.2 35.05-18.63 34.55-17.05 34.32-15.15 34.1-13.25 34.1-11.5L34.1-11.5Q34.1-9.25 34.42-7.85 34.75-6.45 35.25-5.7 35.75-4.95 36.35-4.67 36.95-4.4 37.5-4.4ZM62.3-15.1L62.3-15.1Q62.3-18.1 61.62-19.38 60.95-20.65 59.7-20.65L59.7-20.65Q58.95-20.65 58.42-20.25 57.9-19.85 57.55-19.2 57.2-18.55 57-17.73 56.8-16.9 56.75-16.05L56.75-16.05 56.75 0 49.55 0 49.55-25 56.75-25 56.75-22.4Q57.9-24.15 59.35-24.68 60.8-25.2 62.1-25.2L62.1-25.2Q63.5-25.2 64.77-24.75 66.05-24.3 67.02-23.23 68-22.15 68.55-20.38 69.1-18.6 69.1-16L69.1-16Q69.1-15.35 69.07-14.38 69.05-13.4 69-12.4 68.95-11.4 68.92-10.45 68.9-9.5 68.9-8.85L68.9-8.85Q68.9-6.7 69.35-5.63 69.8-4.55 71.35-4.55L71.35-4.55Q73.05-4.55 73.72-5.8 74.4-7.05 74.8-8.95L74.8-8.95 76.9-8.95Q76.5-5.95 75.7-4.13 74.9-2.3 73.9-1.33 72.9-0.35 71.75-0.03 70.6 0.3 69.5 0.3L69.5 0.3Q65.65 0.3 63.92-2.25 62.2-4.8 62.2-9.05L62.2-9.05Q62.2-9.5 62.22-10.33 62.25-11.15 62.25-12.05 62.25-12.95 62.27-13.78 62.3-14.6 62.3-15.1ZM93.89-8.95L95.99-8.95Q94.44-6.6 92.69-5.1 90.94-3.6 89.44-2.55L89.44-2.55Q88.14-1 86.19-0.35 84.24 0.3 82.44 0.3L82.44 0.3Q80.24 0.3 78.59-0.4 76.94-1.1 75.84-2.18 74.74-3.25 74.19-4.58 73.64-5.9 73.64-7.1L73.64-7.1Q73.64-8.45 74.17-9.4 74.69-10.35 75.49-10.75L75.49-10.75Q76.94-14.5 77.92-18.18 78.89-21.85 79.29-25.55L79.29-25.55 86.49-26.55Q87.74-21.7 88.59-18.68 89.44-15.65 89.94-13.63 90.44-11.6 90.64-10.1 90.84-8.6 90.84-6.75L90.84-6.75 90.84-6.45Q92.64-7.7 93.89-8.95L93.89-8.95ZM79.44-8.5L79.44-8.5Q79.44-7.75 78.99-7.13 78.54-6.5 77.69-6.5L77.69-6.5Q77.29-6.5 76.87-6.63 76.44-6.75 76.19-7.15L76.19-7.15Q76.59-5.4 77.47-4.53 78.34-3.65 79.99-3.65L79.99-3.65Q81.44-3.65 82.49-4.42 83.54-5.2 83.54-7.15L83.54-7.15Q83.54-8.5 83.39-9.58 83.24-10.65 82.92-12 82.59-13.35 82.07-15.2 81.54-17.05 80.79-19.85L80.79-19.85Q80.29-17.45 79.57-15.23 78.84-13 78.04-10.6L78.04-10.6Q78.59-10.35 79.02-9.83 79.44-9.3 79.44-8.5ZM93.89-31.9L101.09-32.9 101.09-25 104.14-25 104.14-23 101.09-23 101.09-8Q101.09-5.9 101.67-5.23 102.24-4.55 103.69-4.55L103.69-4.55Q105.14-4.55 106.12-5.8 107.09-7.05 107.24-8.95L107.24-8.95 109.34-8.95Q108.94-5.9 107.94-4.08 106.94-2.25 105.69-1.28 104.44-0.3 103.14 0 101.84 0.3 100.84 0.3L100.84 0.3Q96.99 0.3 95.44-1.83 93.89-3.95 93.89-7.45L93.89-7.45 93.89-23 92.29-23 92.29-25 93.89-25 93.89-31.9ZM107.24-25L114.44-25 114.44-21.9Q115.54-23.2 116.89-24.23 118.24-25.25 119.84-25.25L119.84-25.25Q120.79-25.25 121.56-24.85 122.34-24.45 122.91-23.8 123.49-23.15 123.81-22.38 124.14-21.6 124.14-20.8L124.14-20.8Q124.14-19.7 123.46-18.78 122.79-17.85 121.24-17.85L121.24-17.85Q120.09-17.85 119.64-18.35 119.19-18.85 118.94-19.43 118.69-20 118.41-20.5 118.14-21 117.44-21L117.44-21Q116.69-21 115.96-20.43 115.24-19.85 114.44-19L114.44-19 114.44 0 107.24 0 107.24-25ZM138.44-25L145.64-25 145.64-8Q145.64-6.1 146.14-5.33 146.64-4.55 147.94-4.55L147.94-4.55Q149.84-4.55 150.71-5.85 151.59-7.15 151.79-8.95L151.79-8.95 153.89-8.95Q153.49-5.9 152.49-4.08 151.49-2.25 150.24-1.28 148.99-0.3 147.69 0 146.39 0.3 145.34 0.3L145.34 0.3Q142.64 0.3 141.26-0.95 139.89-2.2 139.39-4.45L139.39-4.45Q138.79-2.85 137.94-1.93 137.09-1 136.19-0.5 135.29 0 134.39 0.15 133.49 0.3 132.74 0.3L132.74 0.3Q129.19 0.3 127.61-1.8 126.04-3.9 126.04-7.45L126.04-7.45 126.04-25 133.24-25 133.24-8Q133.24-6.1 133.76-5.33 134.29-4.55 135.29-4.55L135.29-4.55Q136.64-4.55 137.54-5.8 138.44-7.05 138.44-8.95L138.44-8.95 138.44-25ZM163.33-17.25L163.33-17.25Q163.43-17.65 163.46-17.95 163.48-18.25 163.48-18.75L163.48-18.75Q163.48-20.8 162.91-21.7 162.33-22.6 161.43-22.6L161.43-22.6Q160.43-22.6 159.71-21.58 158.98-20.55 158.51-18.98 158.03-17.4 157.81-15.45 157.58-13.5 157.58-11.65L157.58-11.65Q157.58-9.3 157.91-7.8 158.23-6.3 158.88-5.45 159.53-4.6 160.51-4.25 161.48-3.9 162.73-3.9L162.73-3.9Q164.23-3.9 165.36-4.3 166.48-4.7 167.38-5.38 168.28-6.05 169.03-6.98 169.78-7.9 170.48-8.95L170.48-8.95 172.18-8.95Q171.48-7.2 170.51-5.55 169.53-3.9 168.11-2.6 166.68-1.3 164.76-0.5 162.83 0.3 160.28 0.3L160.28 0.3Q158.18 0.3 156.38-0.33 154.58-0.95 153.26-2.33 151.93-3.7 151.21-5.9 150.48-8.1 150.48-11.2L150.48-11.2Q150.48-13.3 150.91-15.78 151.33-18.25 152.48-20.35 153.63-22.45 155.61-23.85 157.58-25.25 160.73-25.25L160.73-25.25Q162.68-25.25 163.96-24.7 165.23-24.15 165.98-23.33 166.73-22.5 167.03-21.53 167.33-20.55 167.33-19.65L167.33-19.65Q167.33-18.35 166.81-17.5 166.28-16.65 165.38-16.65L165.38-16.65Q164.98-16.65 164.43-16.8 163.88-16.95 163.33-17.25ZM170.48-31.9L177.68-32.9 177.68-25 180.73-25 180.73-23 177.68-23 177.68-8Q177.68-5.9 178.25-5.23 178.83-4.55 180.28-4.55L180.28-4.55Q181.73-4.55 182.7-5.8 183.68-7.05 183.83-8.95L183.83-8.95 185.93-8.95Q185.53-5.9 184.53-4.08 183.53-2.25 182.28-1.28 181.03-0.3 179.73 0 178.43 0.3 177.43 0.3L177.43 0.3Q173.58 0.3 172.03-1.83 170.48-3.95 170.48-7.45L170.48-7.45 170.48-23 168.88-23 168.88-25 170.48-25 170.48-31.9ZM183.83-25L191.03-25 191.03-8Q191.03-5.9 191.6-5.23 192.18-4.55 193.63-4.55L193.63-4.55Q195.08-4.55 196.05-5.8 197.03-7.05 197.18-8.95L197.18-8.95 199.28-8.95Q198.88-5.9 197.88-4.08 196.88-2.25 195.63-1.28 194.38-0.3 193.08 0 191.78 0.3 190.78 0.3L190.78 0.3Q186.93 0.3 185.38-1.83 183.83-3.95 183.83-7.45L183.83-7.45 183.83-25ZM183.28-31.65L183.28-31.65Q183.28-33.3 184.43-34.48 185.58-35.65 187.23-35.65L187.23-35.65Q188.88-35.65 190.05-34.48 191.23-33.3 191.23-31.65L191.23-31.65Q191.23-30 190.05-28.85 188.88-27.7 187.23-27.7L187.23-27.7Q185.58-27.7 184.43-28.85 183.28-30 183.28-31.65ZM207.02-25.25L207.02-25.25Q210.47-25.25 212.52-23.38 214.57-21.5 215.17-17.35L215.17-17.35 215.52-17.35Q216.22-17.35 217.1-17.6 217.97-17.85 218.92-18.25 219.88-18.65 220.77-19.2 221.67-19.75 222.38-20.35L222.38-20.35 223.13-19Q222.57-18.2 221.75-17.55 220.92-16.9 219.88-16.38 218.82-15.85 217.67-15.48 216.52-15.1 215.38-14.9L215.38-14.9Q215.42-14.55 215.42-14.23 215.42-13.9 215.42-13.55L215.42-13.55Q215.42-10.65 214.92-8.13 214.42-5.6 213.25-3.73 212.07-1.85 210.22-0.78 208.38 0.3 205.67 0.3L205.67 0.3Q203.82 0.3 202.15-0.28 200.47-0.85 199.17-2.18 197.88-3.5 197.1-5.68 196.32-7.85 196.32-11L196.32-11Q196.32-13.15 196.77-15.63 197.22-18.1 198.42-20.25 199.63-22.4 201.7-23.83 203.77-25.25 207.02-25.25ZM207.07-4.4L207.07-4.4Q208.13-4.4 208.9-5.13 209.67-5.85 210.17-7.13 210.67-8.4 210.9-10.15 211.13-11.9 211.13-13.95L211.13-13.95 211.13-14.7Q209.88-14.95 209.52-15.65 209.17-16.35 209.17-17.2L209.17-17.2Q209.17-18.25 209.52-18.8 209.88-19.35 210.42-19.55L210.42-19.55Q209.88-21.25 209.1-21.75 208.32-22.25 207.77-22.25L207.77-22.25Q206.67-22.25 205.9-21.23 205.13-20.2 204.63-18.63 204.13-17.05 203.9-15.15 203.67-13.25 203.67-11.5L203.67-11.5Q203.67-9.25 204-7.85 204.32-6.45 204.82-5.7 205.32-4.95 205.92-4.67 206.52-4.4 207.07-4.4ZM231.87-15.1L231.87-15.1Q231.87-18.1 231.2-19.38 230.52-20.65 229.27-20.65L229.27-20.65Q228.52-20.65 228-20.25 227.47-19.85 227.12-19.2 226.77-18.55 226.57-17.73 226.37-16.9 226.32-16.05L226.32-16.05 226.32 0 219.12 0 219.12-25 226.32-25 226.32-22.4Q227.47-24.15 228.92-24.68 230.37-25.2 231.67-25.2L231.67-25.2Q233.07-25.2 234.35-24.75 235.62-24.3 236.6-23.23 237.57-22.15 238.12-20.38 238.67-18.6 238.67-16L238.67-16Q238.67-15.35 238.65-14.38 238.62-13.4 238.57-12.4 238.52-11.4 238.5-10.45 238.47-9.5 238.47-8.85L238.47-8.85Q238.47-6.7 238.92-5.63 239.37-4.55 240.92-4.55L240.92-4.55Q242.62-4.55 243.3-5.8 243.97-7.05 244.37-8.95L244.37-8.95 246.47-8.95Q246.07-5.95 245.27-4.13 244.47-2.3 243.47-1.33 242.47-0.35 241.32-0.03 240.17 0.3 239.07 0.3L239.07 0.3Q235.22 0.3 233.5-2.25 231.77-4.8 231.77-9.05L231.77-9.05Q231.77-9.5 231.8-10.33 231.82-11.15 231.82-12.05 231.82-12.95 231.85-13.78 231.87-14.6 231.87-15.1Z" opacity="1" transform="matrix(1,0,0,1,0,0)" fill="#332885" class="wordmark-text-0" data-fill-palette-color="primary" id="text-0"></path></svg></g></svg></g></svg></g></svg></g><g><svg viewBox="0 0 113.88347242329236 94.99560149307645" height="94.99560149307645" width="113.88347242329236"><g><svg xmlns="http://www.w3.org/2000/svg" data-name="Calque 1" viewBox="4.326817989349365 4.885083198547363 91.34465789794922 76.19490814208984" x="0" y="0" height="94.99560149307645" width="113.88347242329236" class="icon-icon-0" data-fill-palette-color="accent" id="icon-0"><path d="M95.41 25.94L54.59 6.16a8.9 8.9 0 0 0-9.18 0L4.59 25.94c-0.47 0.28-0.27 4.08 0.28 4.08H8.76v2.24A4.21 4.21 0 0 0 13 36.47H13V65.54H7.67A1.27 1.27 0 0 0 6.4 66.81v13a1.27 1.27 0 0 0 1.27 1.27H92.33a1.27 1.27 0 0 0 1.27-1.27v-13a1.27 1.27 0 0 0-1.27-1.27H87V36.47H87a4.21 4.21 0 0 0 4.21-4.21V30h3.89C95.68 30 95.88 26.22 95.41 25.94ZM45.29 65.54H22.45V36.47h0.06a4.2 4.2 0 0 0 4.2-4.21V30H41v2.24a4.21 4.21 0 0 0 4.21 4.21h0.06ZM50 21.7A5.7 5.7 0 1 1 55.7 16 5.7 5.7 0 0 1 50 21.7ZM77.55 65.54H54.71V36.47h0.06A4.21 4.21 0 0 0 59 32.26V30H73.29v2.24a4.2 4.2 0 0 0 4.2 4.21h0.06Z" fill="#332885" data-fill-palette-color="accent"></path></svg></g></svg></g></svg></g></svg></g></svg></g></svg></g><defs></defs></svg><rect width="395.52" height="247.2" fill="none" stroke="none" visibility="hidden"></rect></g></svg></g></svg>